<?xml version="1.0" encoding="utf-8"?>
<!-- Generator: Adobe Illustrator 16.0.0, SVG Export Plug-In . SVG Version: 6.00 Build 0)  -->
<!DOCTYPE svg PUBLIC "-//W3C//DTD SVG 1.1//EN" "http://www.w3.org/Graphics/SVG/1.1/DTD/svg11.dtd">
<svg version="1.1" id="Capa_1" xmlns="http://www.w3.org/2000/svg" xmlns:xlink="http://www.w3.org/1999/xlink" x="0px" y="0px"
	 width="1545.109px" height="766.156px" viewBox="0 0 1545.109 766.156" enable-background="new 0 0 1545.109 766.156"
	 xml:space="preserve">
<g>
	<g>
		<g>
			<path d="M378.492,766.155h126.164V261.499c0-139.356-112.973-252.328-252.328-252.328C112.972,9.17,0,122.143,0,261.499v504.657
				h126.164V576.909h252.328V766.155z M126.164,450.745V261.499c0-69.678,56.486-126.164,126.164-126.164
				c69.678,0,126.164,56.486,126.164,126.164v189.247L126.164,450.745L126.164,450.745z"/>
		</g>
	</g>
</g>
<path d="M880.419,312.13H729.354V70.424c0-33.355-27.07-60.426-60.427-60.426c-33.355,0-60.427,27.071-60.427,60.426v634.478
	c0,33.354,27.071,60.426,60.427,60.426h211.492c83.3,0,151.065-67.766,151.065-151.066V463.196
	C1031.484,379.896,963.719,312.13,880.419,312.13z M910.632,614.262c0,16.648-13.535,30.213-30.213,30.213H729.354V432.982h151.065
	c16.678,0,30.213,13.564,30.213,30.213V614.262z"/>
<path d="M1484.684,644.475h-151.066c-49.975,0-90.641-40.665-90.641-90.639v-90.64c0-49.974,40.666-90.641,90.641-90.641h151.066
	c33.354,0,60.426-27.071,60.426-60.426s-27.07-60.426-60.426-60.426h-151.066c-116.594,0-211.492,94.87-211.492,211.492v90.64
	c0,116.622,94.899,211.492,211.492,211.492h151.066c33.354,0,60.426-27.071,60.426-60.426
	C1545.109,671.547,1518.038,644.475,1484.684,644.475z"/>
</svg>
