<?xml version="1.0" encoding="utf-8"?>
<!-- Generator: Adobe Illustrator 16.0.0, SVG Export Plug-In . SVG Version: 6.00 Build 0)  -->
<!DOCTYPE svg PUBLIC "-//W3C//DTD SVG 1.1//EN" "http://www.w3.org/Graphics/SVG/1.1/DTD/svg11.dtd">
<svg version="1.1" id="Layer_1" xmlns="http://www.w3.org/2000/svg" xmlns:xlink="http://www.w3.org/1999/xlink" x="0px" y="0px"
	 width="512px" height="512px" viewBox="0 0 512 512" enable-background="new 0 0 512 512" xml:space="preserve">
<g>
	<path fill="#E29454" d="M300.14,104.28c-14.21,27.21-28.06,53.93-28.06,70.85c-8.471,6.82-22.23,7.17-30.12,1.96
		c0.011-1.827,0.145-3.651,0.4-5.46l1.1-5.81c9.04-38.46,56.07-104.93,56.7-139.69c0.059-8.335,6.805-15.077,15.14-15.13
		c3.972-0.011,7.777,1.587,10.55,4.43c2.791,2.882,4.422,6.691,4.58,10.7c0.851,18.76-14.92,48.73-30.279,78.13
		C300.14,104.27,300.14,104.27,300.14,104.28z"/>
	<path fill="#BF7A47" d="M254.448,177.09c0.011-1.827,0.144-3.651,0.4-5.46l1.1-5.81c9.041-38.46,56.07-104.93,56.7-139.69
		c0.074-5.905,3.522-11.247,8.873-13.748c-1.947-0.912-4.071-1.384-6.222-1.382c-8.336,0.053-15.081,6.794-15.14,15.13
		c-0.63,34.76-47.66,101.23-56.7,139.69l-1.1,5.81c-0.255,1.809-0.389,3.633-0.4,5.46c5.078,3.353,12.583,4.388,19.549,2.893
		C259,179.451,256.609,178.471,254.448,177.09z"/>
	<path fill="#8DC63F" d="M407.09,79.86c0.69,1.234,0.797,2.71,0.29,4.03l-5.06,13.19c-4.572,11.94-11.806,22.683-21.15,31.41
		c-4.087-1.669-8.271-3.088-12.53-4.25c-49.29-13.51-76.59,30.91-94.84,49.35c-0.542,0.547-1.116,1.062-1.72,1.54
		c0-16.92,13.85-43.64,28.06-70.85c0-0.01,0-0.01,0.011-0.021c19.989-30.05,55.64-37.61,89.51-30.02l14.13,3.16
		C405.19,77.712,406.392,78.607,407.09,79.86L407.09,79.86z"/>
	<path fill="#739937" d="M403.79,77.4l-2.112-0.472c-4.262,5.275-8.727,10.646-13.218,16.038c0,0.009,0,0.009-0.014,0.017
		c-24.566,23.85-58.622,24.926-88.946,12.522c-13.982,26.785-27.42,52.959-27.42,69.625c0.604-0.479,1.178-0.993,1.72-1.54
		c18.25-18.44,45.55-62.86,94.84-49.35c4.259,1.162,8.443,2.581,12.53,4.25c9.345-8.728,16.578-19.47,21.15-31.41l5.06-13.19
		c0.507-1.32,0.4-2.796-0.29-4.03C406.392,78.607,405.19,77.712,403.79,77.4z"/>
	<path fill="#8DC63F" d="M242.36,171.63c-0.255,1.809-0.389,3.633-0.4,5.46c-1.454-0.93-2.728-2.116-3.76-3.5
		c-13.71-18.79-41.66-57.48-85.6-51.28c-11.09-19.88-18.52-50.43-15.69-74.49l2.13-18.2c0.402-3.443,3.52-5.907,6.962-5.505
		c0.306,0.036,0.61,0.094,0.908,0.175l17.7,4.75c53.466,14.373,88.309,65.773,81.86,120.76l-3.01,16.021
		C242.98,167.84,242.613,169.777,242.36,171.63z"/>
	<path fill="#6E891A" d="M169.157,30.369c3.455,1.472,7.052,2.831,10.761,4C176.402,32.853,172.81,31.517,169.157,30.369z"/>
	<path fill="#739937" d="M140.7,39.354l-1.762-8.854l-2.028,17.32c-2.83,24.06,4.6,54.61,15.69,74.49
		c43.94-6.2,71.89,32.49,85.6,51.28c1.032,1.384,2.306,2.57,3.76,3.5c0.011-1.827,0.145-3.651,0.4-5.46
		c0.25-1.85,0.617-3.787,1.1-5.81l3.01-16.02c1.103-9.367,1.014-18.835-0.265-28.18C196.676,120.654,153.712,87.153,140.7,39.354z"
		/>
	<path fill="#FC324B" d="M381.17,126.49c59.69,24.35,81.84,95.65,81.84,148.79c0,94.64-92.92,223.72-152.63,223.72
		c-14.8,0-28.771-8.15-38.899-14.28c-8.881-5.37-25.32-3.46-30.96,0c-10.09,6.19-24.49,14.28-38.9,14.28
		c-71.35,0-152.06-127.62-152.63-223.72C48.72,229,74.21,141.19,143.36,122.24c3.037-0.838,6.123-1.482,9.24-1.93
		c43.94-6.2,71.89,32.49,85.6,51.28c1.032,1.384,2.306,2.57,3.76,3.5c7.89,5.21,21.649,4.86,30.12-1.96
		c0.604-0.479,1.178-0.993,1.72-1.54c18.25-18.44,45.55-62.86,94.84-49.35C372.898,123.402,377.083,124.821,381.17,126.49z"/>
	<path fill="#E01B33" d="M144.324,319.052c-23.883-43.331-44.773-138.822,10.5-191.926c2.424-2.337,4.993-4.519,7.693-6.531
		c0.424-0.313,0.85-0.615,1.277-0.917c-3.745-0.106-7.491,0.105-11.2,0.632c-3.117,0.448-6.204,1.092-9.24,1.93
		C74.21,141.19,48.72,229,48.99,275.28C49.56,371.38,130.27,499,201.62,499c14.41,0,28.81-8.09,38.9-14.28
		c5.64-3.46,22.08-5.37,30.96,0c10.129,6.13,24.1,14.28,38.899,14.28c20.819,0,45.675-15.7,69.222-40.158
		C307.452,471.731,188.936,399.977,144.324,319.052z"/>
	<g opacity="0.6">
		<path fill="#E9E9E9" d="M103.033,303.171c-2.887-0.004-5.361-2.063-5.89-4.899c-13.883-74.053,18.128-107.178,19.5-108.552
			c2.351-2.335,6.15-2.322,8.485,0.028c2.312,2.327,2.326,6.079,0.033,8.424c-0.18,0.187-7.338,7.714-12.877,23.275
			c-5.179,14.551-9.964,39.307-3.345,74.613c0.608,3.26-1.542,6.396-4.803,7.005c-0.362,0.067-0.729,0.102-1.097,0.102
			L103.033,303.171z"/>
	</g>
	<g opacity="0.6">
		<path fill="#E9E9E9" d="M108.624,331.8c-2.819-0.003-5.256-1.968-5.856-4.723l-2.65-12.16c-0.739-3.23,1.281-6.448,4.512-7.187
			s6.448,1.281,7.187,4.512c0.009,0.039,0.018,0.079,0.025,0.119l2.65,12.16c0.704,3.24-1.354,6.438-4.595,7.142
			C109.479,331.754,109.052,331.8,108.624,331.8z"/>
	</g>
</g>
</svg>
