<svg height="512pt" viewBox="-32 0 512 512" width="512pt" xmlns="http://www.w3.org/2000/svg"><path d="m369.382812 18.371094c13.949219-13.953125 39.242188 11.339844 25.289063 25.292968-13.949219 13.949219-30.921875 19.601563-37.90625 12.617188s-1.335937-23.957031 12.617187-37.910156zm0 0" fill="#d05e60"/><path d="m267.460938 408.960938s10.171874 8.144531 19.925781 20.007812c19.171875 23.320312 29.527343 52.875 29.527343 83.03125h-205.75c0-30.15625 10.355469-59.710938 29.527344-83.03125 9.753906-11.863281 19.925782-20.007812 19.925782-20.007812zm0 0" fill="#ac84c4"/><path d="m287.382812 428.96875c-9.75-11.863281-19.921874-20.007812-19.921874-20.007812h-106.847657s-10.167969 8.148437-19.921875 20.007812c-19.171875 23.320312-29.527344 52.875-29.527344 83.03125h35.503907c7.792969-5.15625 13.921875-12.785156 17.144531-22.011719.894531-2.554687 1.789062-4.847656 2.660156-6.890625 14.050782 2.890625 29.839844 4.351563 47.21875 4.351563 40.59375 0 72.117188-7.917969 94.132813-23.570313-4.921875-12.5625-11.777344-24.371094-20.441407-34.910156zm0 0" fill="#9a77af"/><path d="m125.339844 415.253906s-19.378906 21.53125-30.324219 47.746094c-2.152344 5.15625-.777344 11.125 3.496094 14.722656 4.613281 3.875 11.714843 8.355469 21.417969 10.367188 6.292968 1.304687 12.585937-2.222656 14.707031-8.292969 3.355469-9.605469 9.605469-24.296875 18.636719-32.652344 14.21875-13.152343-27.933594-31.890625-27.933594-31.890625zm0 0" fill="#d05e60"/><path d="m310.613281 389.949219s16.132813 66.59375-96.921875 66.59375c-113.058594 0-96.925781-66.59375-96.925781-66.59375zm0 0" fill="#e16668"/><path d="m214.039062 164.773438-214.039062 25.324218v129.636719c0 31.292969 25.371094 56.664063 56.667969 56.664063h314.046875c31.292968 0 56.664062-25.371094 56.664062-56.664063v-129.636719zm0 0" fill="#394048"/><path d="m402.5 231.246094c0-102.316406-84.375-185.261719-188.460938-185.261719-104.085937 0-188.464843 82.945313-188.464843 185.261719s84.378906 185.261718 188.464843 185.261718c104.085938 0 188.460938-82.945312 188.460938-185.261718zm0 0" fill="#f5cdb6"/><path d="m56.480469 231.246094c0-97.199219 76.15625-176.910156 173.011719-184.636719-5.097657-.40625-10.25-.625-15.453126-.625-104.085937 0-188.464843 82.945313-188.464843 185.261719s84.378906 185.261718 188.464843 185.261718c5.203126 0 10.355469-.214843 15.453126-.625-96.855469-7.726562-173.011719-87.433593-173.011719-184.636718zm0 0" fill="#e2b3a3"/><path d="m427.378906 190.097656c-19.136718-98.910156-107.667968-173.921875-213.6875-173.921875-106.019531 0-194.554687 75.011719-213.691406 173.921875zm0 0" fill="#d05e60"/><path d="m308.902344 266.742188c-4.265625 0-7.726563-3.460938-7.726563-7.726563v-18.445313c0-4.269531 3.460938-7.726562 7.726563-7.726562s7.726562 3.457031 7.726562 7.726562v18.445313c0 4.265625-3.460937 7.726563-7.726562 7.726563zm0 0" fill="#394048"/><path d="m321.464844 293.851562h-25.125c-4.265625 0-7.726563-3.457031-7.726563-7.726562 0-4.265625 3.460938-7.726562 7.726563-7.726562h25.125c4.265625 0 7.726562 3.460937 7.726562 7.726562 0 4.269531-3.460937 7.726562-7.726562 7.726562zm0 0" fill="#e98e8f"/><path d="m119.171875 266.742188c-4.265625 0-7.726563-3.460938-7.726563-7.726563v-18.445313c0-4.269531 3.460938-7.726562 7.726563-7.726562 4.269531 0 7.726563 3.457031 7.726563 7.726562v18.445313c0 4.265625-3.457032 7.726563-7.726563 7.726563zm0 0" fill="#394048"/><path d="m131.734375 293.851562h-25.121094c-4.269531 0-7.726562-3.457031-7.726562-7.726562 0-4.265625 3.457031-7.726562 7.726562-7.726562h25.121094c4.269531 0 7.726563 3.460937 7.726563 7.726562 0 4.269531-3.457032 7.726562-7.726563 7.726562zm0 0" fill="#e98e8f"/><path d="m214.039062 292.808594c-8.84375 0-17.148437-3.695313-22.785156-10.144532-2.808594-3.214843-2.480468-8.097656.730469-10.90625 3.210937-2.804687 8.09375-2.480468 10.902344.734376 2.703125 3.089843 6.765625 4.863281 11.152343 4.863281 4.382813 0 8.445313-1.773438 11.148438-4.863281 2.808594-3.214844 7.6875-3.542969 10.902344-.734376 3.214844 2.808594 3.539062 7.691407.730468 10.902344-5.636718 6.449219-13.941406 10.148438-22.78125 10.148438zm0 0" fill="#394048"/><path d="m378.785156 67.261719c-44.125-43.375-102.753906-67.261719-165.09375-67.261719s-120.972656 23.886719-165.097656 67.261719c-.074219.074219-.152344.148437-.230469.226562-9.957031 9.816407-5.25 26.769531 8.300781 30.226563 29.558594 7.539062 79.203126 22.347656 138.175782 48.5 58.796875 26.074218 181.625 62.636718 199.023437 138.796875 2.484375 10.863281 12.304688 18.472656 23.449219 18.472656 11.066406 0 20.746094-7.519531 23.410156-18.261719 4.410156-17.792968 6.679688-36.234375 6.679688-55.023437 0-61.574219-24.371094-119.441407-68.617188-162.9375zm0 0" fill="#e16668"/></svg>