<?xml version="1.0" encoding="utf-8"?>
<!-- Generator: Adobe Illustrator 16.0.0, SVG Export Plug-In . SVG Version: 6.00 Build 0)  -->
<!DOCTYPE svg PUBLIC "-//W3C//DTD SVG 1.1//EN" "http://www.w3.org/Graphics/SVG/1.1/DTD/svg11.dtd">
<svg version="1.1" id="Layer_1" xmlns="http://www.w3.org/2000/svg" xmlns:xlink="http://www.w3.org/1999/xlink" x="0px" y="0px"
	 width="512px" height="512px" viewBox="0 0 512 512" enable-background="new 0 0 512 512" xml:space="preserve">
<path fill="#FF5F7F" d="M182.902,148.938L9.918,321.922c-13.223,13.223-13.223,34.66,0,47.883l132.277,132.278
	c13.223,13.223,34.656,13.223,47.879,0l172.988-172.989L182.902,148.938z"/>
<path fill="#F4375C" d="M142.195,502.083c13.223,13.223,34.656,13.223,47.879,0l172.988-172.989l-20.605-20.602L169.473,481.478
	c-13.223,13.223-34.66,13.223-47.883,0L142.195,502.083z"/>
<path fill="#E1966D" d="M453.098,229.489c9.059-2.688,16.141-9.773,18.832-18.832c2.688-9.059,9.77-16.141,18.828-18.832
	c9.059-2.688,16.145-9.77,18.832-18.828v-0.008c2.828-9.52,3.172-19.602,1.012-29.293l-0.211-0.938
	c-2.406-10.781-9.59-19.883-19.52-24.727c-7.281-3.555-13.164-9.438-16.715-16.715l-2.188-4.48
	c-3.551-7.277-9.434-13.16-16.711-16.715l-4.48-2.184c-7.277-3.551-13.164-9.434-16.715-16.715l-2.184-4.477
	c-3.555-7.281-9.438-13.164-16.715-16.715l-4.48-2.188c-7.277-3.551-13.16-9.434-16.715-16.715
	c-4.844-9.93-13.945-17.113-24.727-19.52l-0.934-0.207c-9.695-2.164-19.781-1.816-29.305,1.008
	c-9.055,2.688-16.141,9.773-18.828,18.832s-9.773,16.141-18.832,18.832c-9.059,2.688-16.141,9.77-18.832,18.828
	c-2.688,9.059-9.77,16.145-18.828,18.832s-16.145,9.773-18.832,18.832l-4.309,14.52l45.332,115.043l115.043,45.332l14.523-4.309
	c9.055-2.688,16.141-9.773,18.828-18.832C436.957,239.262,444.039,232.176,453.098,229.489z"/>
<path fill="#D77C40" d="M510.598,143.7l-0.207-0.938c-2.406-10.781-9.59-19.883-19.52-24.73c-0.984-0.477-1.934-1.008-2.863-1.566
	c0.742,1.832,1.344,3.734,1.781,5.695l0.207,0.934c2.164,9.691,1.816,19.773-1.008,29.293l-0.004,0.008
	c-2.688,9.055-9.77,16.141-18.828,18.828s-16.145,9.773-18.832,18.832c-2.688,9.055-9.773,16.141-18.832,18.828
	c-9.055,2.688-16.141,9.773-18.828,18.832c-2.688,9.055-9.773,16.141-18.832,18.828l-14.52,4.309l-100.266-39.504l5.824,14.777
	l115.043,45.332l14.523-4.309c9.055-2.688,16.141-9.773,18.828-18.832c2.688-9.059,9.773-16.141,18.832-18.828
	c9.059-2.691,16.141-9.773,18.832-18.832c2.688-9.059,9.77-16.141,18.828-18.828s16.145-9.773,18.832-18.832v-0.004
	C512.414,163.473,512.762,153.391,510.598,143.7z"/>
<path fill="#E9E9E9" d="M400.918,271.457L240.539,111.083c-7.441-7.445-19.512-7.445-26.953,0l-42.887,42.883
	c-8.02,8.023-4.848,21.676,5.887,25.336c14.68,5.012,26.211,16.543,31.223,31.223s16.539,26.211,31.223,31.223
	c14.68,5.012,26.211,16.542,31.219,31.222c5.012,14.68,16.543,26.211,31.223,31.219c14.68,5.012,26.211,16.543,31.223,31.223
	c3.664,10.734,17.316,13.906,25.336,5.887l42.883-42.887C408.359,290.969,408.359,278.902,400.918,271.457z"/>
<path fill="#D3D2D8" d="M400.918,271.457l-20.605-20.601c7.445,7.441,7.445,19.511,0,26.957l-42.883,42.883
	c-2.75,2.75-6.16,4.18-9.605,4.449c1.988,3.195,3.629,6.633,4.871,10.27c3.664,10.734,17.316,13.906,25.336,5.883l42.883-42.883
	C408.359,290.969,408.359,278.902,400.918,271.457z"/>
<g>
	<path fill="#F3C13B" d="M133.859,305.652c-8.891,8.098-12.777,20.91-8.898,33.121c3.883,12.207,14.457,20.422,26.391,21.898
		c8.887-8.098,12.777-20.91,8.895-33.121C156.363,315.344,145.789,307.129,133.859,305.652z"/>
	<path fill="#F3C13B" d="M206.367,378.164c-8.094,8.887-20.91,12.777-33.117,8.895c-12.211-3.879-20.422-14.457-21.898-26.387
		c8.094-8.891,20.91-12.777,33.117-8.898C196.68,355.656,204.891,366.23,206.367,378.164z"/>
	<path fill="#F3C13B" d="M92.348,347.164c-8.891,8.098-12.777,20.91-8.898,33.117c3.883,12.211,14.457,20.426,26.391,21.898
		c8.887-8.094,12.777-20.906,8.895-33.117C114.852,356.855,104.277,348.641,92.348,347.164z"/>
	<path fill="#F3C13B" d="M164.855,419.676c-8.094,8.888-20.91,12.778-33.117,8.896s-20.422-14.458-21.898-26.392
		c8.098-8.887,20.91-12.777,33.117-8.895C155.168,397.168,163.379,407.742,164.855,419.676z"/>
</g>
<path fill="#F3E64D" d="M109.828,409.898c-1.977,0-3.953-0.758-5.461-2.266c-3.02-3.016-3.02-7.91,0-10.926l87.352-87.352
	c3.016-3.02,7.91-3.02,10.926,0c3.016,3.016,3.016,7.906,0,10.926l-87.352,87.352C113.785,409.141,111.805,409.898,109.828,409.898z
	"/>
<path fill="#F3C13B" d="M227.703,284.297c-11.277-4.172-24.445-1.738-33.504,7.32s-11.492,22.227-7.32,33.5
	c11.277,4.176,24.445,1.738,33.504-7.32S231.875,295.574,227.703,284.297z"/>
</svg>
