<?xml version="1.0" encoding="utf-8"?>
<!-- Generator: Adobe Illustrator 16.0.0, SVG Export Plug-In . SVG Version: 6.00 Build 0)  -->
<!DOCTYPE svg PUBLIC "-//W3C//DTD SVG 1.1//EN" "http://www.w3.org/Graphics/SVG/1.1/DTD/svg11.dtd">
<svg version="1.1" id="Layer_1" xmlns="http://www.w3.org/2000/svg" xmlns:xlink="http://www.w3.org/1999/xlink" x="0px" y="0px"
	 width="2000px" height="2000px" viewBox="0 0 2000 2000" enable-background="new 0 0 2000 2000" xml:space="preserve">
<g>
	<path fill="#65C172" d="M513.173,1102.699c51.015-45.364,80.319-107.145,80.319-175.3c0-78.095-31.936-144.764-88.001-186.38
		c-61.079-49.427-140.825-71.493-258.602-71.493c-72.827,0-151.143,6.953-204.382,18.189C17.777,692.95,0,714.855,0,740.189v805.874
		c0,26.794,19.716,49.46,46.255,53.111c27.587,3.841,86.57,10.253,171.459,10.253c150.316,0,251.903-28.824,320.603-91.745
		c56.763-55.109,85.522-123.302,85.522-202.572C623.84,1215.111,574.57,1145.428,513.173,1102.699z M379.207,938.316
		c0,61.716-63.936,83.745-123.777,83.745h-42.447V859.3c11.938-0.665,25.302-1.048,40-1.048
		C379.207,858.252,379.207,912.317,379.207,938.316z M212.983,1209.554h33.907c58.923,0,157.873,13.554,157.873,104.379
		c0,70.063-52.667,105.621-156.636,105.621c-13.143,0-24.858-0.157-35.144-0.508V1209.554L212.983,1209.554z"/>
	<path fill="#65C172" d="M939.84,675.588H834.095c-29.619,0-53.619,24.033-53.619,53.619v819.335
		c0,29.619,24.032,53.619,53.619,53.619H939.84c29.619,0,53.587-24,53.587-53.619V729.207
		C993.459,699.616,969.459,675.588,939.84,675.588z"/>
	<path fill="#65C172" d="M1578.06,662.22c-255.609,0-434.159,199.01-434.159,483.94c0,276.35,173.529,469.359,422,469.359
		c216.1,0.03,434.1-149.97,434.1-485.17C2000,854.7,1826.51,662.22,1578.06,662.22z M1584.38,1392.36
		c-91.14,0-165.02-108.141-165.02-241.53s73.88-241.52,165.02-241.52c91.13,0,165.01,108.13,165.01,241.52
		S1675.51,1392.36,1584.38,1392.36z"/>
</g>
</svg>
