<svg height="512pt" viewBox="-12 0 512 512" width="512pt" xmlns="http://www.w3.org/2000/svg"><path d="m205.953125 512h-69.464844c0-29.953125 9.9375-59.753906 28.332031-83.445312 11.15625-14.371094 21.308594-21.566407 21.308594-21.566407h86.375zm0 0" fill="#d6d6d6"/><path d="m322.40625 428.554688c-6.4375-8.296876-12.546875-14.207032-16.5625-17.714844-2.929688-2.570313-4.746094-3.851563-4.746094-3.851563h-28.59375l-48.652344 33.015625c-11.195312 7.597656-17.898437 20.25-17.898437 33.78125v38.214844h144.785156c0-29.953125-9.933593-59.753906-28.332031-83.445312zm0 0" fill="#e8e8e8"/><path d="m183.769531 471.757812c0 4.84375-3.929687 8.769532-8.773437 8.769532s-8.769532-3.925782-8.769532-8.769532 3.925782-8.769531 8.769532-8.769531 8.773437 3.925781 8.773437 8.769531zm0 0" fill="#bfbfbf"/><path d="m272.507812 471.757812c0 4.84375-3.929687 8.769532-8.773437 8.769532s-8.769531-3.925782-8.769531-8.769532 3.925781-8.769531 8.769531-8.769531 8.773437 3.925781 8.773437 8.769531zm0 0" fill="#bfbfbf"/><path d="m166.226562 62.890625h-81.722656c-42.5625 41.84375-66.007812 97.507813-66.007812 156.742187 0 19.246094 2.492187 38.105469 7.292968 56.246094h140.4375zm0 0" fill="#9a77af"/><path d="m402.144531 62.890625h-82.351562v212.988281h140.84375c4.800781-18.136718 7.351562-37 7.511719-56.246094.511718-59.320312-23.195313-114.941406-66.003907-156.742187zm0 0" fill="#ac84c4"/><path d="m122.199219 374.664062c-39.382813 0-96.410157-27.242187-96.410157-98.785156h50.953126zm0 0" fill="#9a77af"/><path d="m365.027344 374.664062c39.386718 0 96.414062-27.242187 96.414062-98.785156h-50.957031zm0 0" fill="#ac84c4"/><path d="m487.226562 260.609375c0 22.027344-17.859374 39.886719-39.886718 39.886719-22.03125 0-39.886719-17.859375-39.886719-39.886719 0-22.03125 17.855469-39.886719 39.886719-39.886719 22.027344 0 39.886718 17.855469 39.886718 39.886719zm0 0" fill="#e2b3a3"/><path d="m442.644531 219.632812c0-108.054687-89.109375-195.648437-199.03125-195.648437s-199.03125 87.59375-199.03125 195.648437c0 108.054688 89.109375 195.648438 199.03125 195.648438s199.03125-87.59375 199.03125-195.648438zm0 0" fill="#f5cdb6"/><path d="m75.488281 219.632812c0-102.941406 80.878907-187.3125 183.578125-195.066406-5.097656-.386718-10.25-.582031-15.453125-.582031-109.921875 0-199.03125 87.59375-199.03125 195.648437 0 .460938.015625.921876.019531 1.382813-1.527343-.1875-3.09375-.296875-4.714843-.296875-22.027344 0-39.886719 17.859375-39.886719 39.890625 0 22.027344 17.859375 39.886719 39.886719 39.886719 7.695312 0 14.375-2.183594 19.816406-5.960938 29.910156 70.882813 100.984375 120.746094 183.910156 120.746094 5.199219 0 10.351563-.199219 15.453125-.582031-102.699218-7.753907-183.578125-92.125-183.578125-195.066407zm0 0" fill="#e2b3a3"/><path d="m340.328125 260.769531c-4.269531 0-7.726563-3.457031-7.726563-7.726562v-16.71875c0-4.265625 3.457032-7.726563 7.726563-7.726563 4.265625 0 7.726563 3.460938 7.726563 7.726563v16.71875c0 4.269531-3.460938 7.726562-7.726563 7.726562zm0 0" fill="#394048"/><path d="m353.132812 288.410156h-25.613281c-4.265625 0-7.726562-3.457031-7.726562-7.726562 0-4.265625 3.460937-7.726563 7.726562-7.726563h25.613281c4.265626 0 7.726563 3.460938 7.726563 7.726563 0 4.269531-3.460937 7.726562-7.726563 7.726562zm0 0" fill="#e98e8f"/><path d="m146.902344 260.769531c-4.269532 0-7.726563-3.457031-7.726563-7.726562v-16.71875c0-4.265625 3.457031-7.726563 7.726563-7.726563 4.265625 0 7.726562 3.460938 7.726562 7.726563v16.71875c0 4.269531-3.460937 7.726562-7.726562 7.726562zm0 0" fill="#394048"/><path d="m159.707031 288.410156h-25.613281c-4.265625 0-7.722656-3.457031-7.722656-7.726562 0-4.265625 3.457031-7.726563 7.722656-7.726563h25.613281c4.269531 0 7.726563 3.460938 7.726563 7.726563 0 4.269531-3.457032 7.726562-7.726563 7.726562zm0 0" fill="#e98e8f"/><path d="m243.613281 287.347656c-8.96875 0-17.394531-3.75-23.113281-10.292968-2.808594-3.214844-2.480469-8.09375.730469-10.902344 3.214843-2.808594 8.09375-2.480469 10.902343.730468 2.785157 3.1875 6.96875 5.011719 11.480469 5.011719s8.699219-1.824219 11.480469-5.011719c2.808594-3.214843 7.691406-3.539062 10.902344-.730468 3.214844 2.808594 3.542968 7.6875.734375 10.902344-5.71875 6.539062-14.144531 10.292968-23.117188 10.292968zm0 0" fill="#394048"/><path d="m465.53125 28.695312v106.859376l-221.917969 20.636718-221.917969-20.636718v-106.859376c0-15.929687 13.332032-28.695312 29.253907-28.695312h385.332031c15.917969 0 29.25 12.765625 29.25 28.695312zm0 0" fill="#e8e8e8"/><path d="m52.601562 135.554688v-106.859376c0-15.929687 13.332032-28.695312 29.253907-28.695312h-30.90625c-15.921875 0-29.253907 12.765625-29.253907 28.695312v106.859376l221.917969 20.636718 15.453125-1.4375zm0 0" fill="#d6d6d6"/><path d="m21.695312 135.554688h443.835938v48.628906h-443.835938zm0 0" fill="#d6d6d6"/><path d="m21.695312 135.554688h30.90625v48.628906h-30.90625zm0 0" fill="#bfbfbf"/></svg>