<?xml version="1.0" encoding="utf-8"?>
<!-- Generator: Adobe Illustrator 16.0.0, SVG Export Plug-In . SVG Version: 6.00 Build 0)  -->
<!DOCTYPE svg PUBLIC "-//W3C//DTD SVG 1.1//EN" "http://www.w3.org/Graphics/SVG/1.1/DTD/svg11.dtd">
<svg version="1.1" id="Capa_1" xmlns="http://www.w3.org/2000/svg" xmlns:xlink="http://www.w3.org/1999/xlink" x="0px" y="0px"
	 width="2000px" height="2000px" viewBox="0 0 2000 2000" enable-background="new 0 0 2000 2000" xml:space="preserve">
<g>
	<g>
		<g>
			<path fill="#65C172" d="M0,1376.318c0,20.505,14.369,36.597,34.874,36.597h55.679c37.412-82.523,122.591-144.97,221.493-144.97
				c98.906,0,184.065,62.446,221.497,144.97h723.725v-296.113H0V1376.318z"/>
			<path fill="#65C172" d="M312.045,1346.197c-90.645,0-164.125,73.479-164.125,164.124s73.48,164.124,164.125,164.124
				c90.601-0.102,164.022-73.522,164.124-164.124C476.169,1419.682,402.689,1346.197,312.045,1346.197z"/>
			<path fill="#65C172" d="M1978.617,996.187l-156.309-68.703h-487.373v485.432h94.601c37.437-82.523,122.591-144.97,221.492-144.97
				s184.081,62.446,221.493,144.97h92.581c20.505,0,34.873-16.092,34.873-36.597v-344.821
				C2000.49,1016.531,1992.111,1002.677,1978.617,996.187z"/>
			<path fill="#65C172" d="M1661.605,647.604c-19.504-37.402-58.45-60.591-100.629-59.921h-226.041v262.132h431.621
				L1661.605,647.604z"/>
			<path fill="#65C172" d="M1145.792,325.549h-1034.9C48.47,325.549,0,376.938,0,439.358v599.774h1257.267V439.358
				c0-0.175,0.005-0.35,0.005-0.523C1257.771,376.772,1207.859,326.049,1145.792,325.549z"/>
			<path fill="#65C172" d="M1651.02,1346.197c-90.646,0.005-164.125,73.484-164.12,164.129s73.485,164.124,164.13,164.119
				c90.6-0.102,164.017-73.522,164.119-164.124v-0.005C1815.143,1419.677,1741.663,1346.197,1651.02,1346.197z"/>
		</g>
	</g>
</g>
</svg>
