<?xml version="1.0" encoding="utf-8"?>
<!-- Generator: Adobe Illustrator 16.0.0, SVG Export Plug-In . SVG Version: 6.00 Build 0)  -->
<!DOCTYPE svg PUBLIC "-//W3C//DTD SVG 1.1//EN" "http://www.w3.org/Graphics/SVG/1.1/DTD/svg11.dtd">
<svg version="1.1" id="Capa_1" xmlns="http://www.w3.org/2000/svg" xmlns:xlink="http://www.w3.org/1999/xlink" x="0px" y="0px"
	 width="2000px" height="2000px" viewBox="0 0 2000 2000" enable-background="new 0 0 2000 2000" xml:space="preserve">
<g>
	<g>
		<polygon fill="#026A23" points="1325.75,1010.25 2000,1436.5 2000,566 		"/>
	</g>
</g>
<g>
	<g>
		<polygon fill="#026A23" points="0,566 0,1436.5 674.25,1010.25 		"/>
	</g>
</g>
<g>
	<g>
		<path fill="#026A23" d="M1875,312.5H125C62.625,312.5,13.125,359,3.75,418.875L1000,1075.25l996.25-656.375
			C1986.875,359,1937.375,312.5,1875,312.5z"/>
	</g>
</g>
<g>
	<g>
		<path fill="#026A23" d="M1211.25,1085.75l-176.875,116.5c-10.5,6.875-22.375,10.25-34.375,10.25s-23.875-3.375-34.375-10.25
			L788.75,1085.625L4,1582c9.625,59.375,58.875,105.5,121,105.5h1750c62.125,0,111.375-46.125,121-105.5L1211.25,1085.75z"/>
	</g>
</g>
</svg>
