<?xml version="1.0" encoding="utf-8"?>
<!-- Generator: Adobe Illustrator 16.0.0, SVG Export Plug-In . SVG Version: 6.00 Build 0)  -->
<!DOCTYPE svg PUBLIC "-//W3C//DTD SVG 1.1//EN" "http://www.w3.org/Graphics/SVG/1.1/DTD/svg11.dtd">
<svg version="1.1" id="Layer_1" xmlns="http://www.w3.org/2000/svg" xmlns:xlink="http://www.w3.org/1999/xlink" x="0px" y="0px"
	 width="512px" height="390.5px" viewBox="0 0 512 390.5" enable-background="new 0 0 512 390.5" xml:space="preserve">
<g id="flat">
	<path fill="#02A437" d="M108.624,151.261c-15.446-15.804-40.78-16.095-56.584-0.647c-7.408,7.24-11.72,17.071-12.029,27.425
		c-15.308,8.832-20.558,28.401-11.726,43.709s28.401,20.558,43.709,11.726c5.821-3.358,10.437-8.463,13.193-14.592
		c6.433-0.843,12.564-3.235,17.867-6.973c16.25,6.948,35.056-0.593,42.003-16.843c6.948-16.25-0.593-35.056-16.843-42.003
		C122.036,150.418,115.181,149.789,108.624,151.261z"/>
	<path fill="#027E2A" d="M94.546,224.481c-3.297,0.001-6.257-2.021-7.455-5.093l-14.542-37.264
		c-1.606-4.116,0.429-8.755,4.545-10.361c4.116-1.604,8.755,0.429,10.361,4.545L102,213.571c1.607,4.115-0.426,8.754-4.542,10.362
		c-0.927,0.362-1.914,0.548-2.909,0.548H94.546z"/>
	<path fill="#027E2A" d="M109.458,218.663c-0.245,0-0.492-0.012-0.741-0.034c-4.399-0.404-7.638-4.299-7.234-8.699c0,0,0,0,0-0.001
		c1.247-13.28,6.74-25.805,15.665-35.717c2.936-3.302,7.993-3.599,11.294-0.663c3.302,2.936,3.599,7.993,0.663,11.294
		c-0.029,0.033-0.059,0.066-0.089,0.099c-6.609,7.341-10.676,16.616-11.6,26.45C117.04,215.507,113.59,218.658,109.458,218.663z"/>
	<path fill="#027E2A" d="M79.636,230.3c-1.982,0.002-3.894-0.734-5.363-2.066c-7.34-6.609-16.615-10.677-26.449-11.6
		c-4.4-0.404-7.64-4.299-7.235-8.699c0.405-4.4,4.299-7.639,8.699-7.235c13.277,1.248,25.8,6.739,35.712,15.661
		c3.28,2.96,3.539,8.019,0.579,11.299C84.062,229.342,81.901,230.301,79.636,230.3z"/>
	<path fill="#FD9226" d="M188.339,368.8l-59.621,23.271L71.255,276.882c-10.805-21.664-2.002-47.986,19.662-58.792
		c1.184-0.59,2.395-1.127,3.627-1.608c22.552-8.801,47.969,2.346,56.771,24.898c0.482,1.235,0.908,2.491,1.275,3.764L188.339,368.8z
		"/>
	<path fill="#026A23" d="M272,24h32v224h-32V24z"/>
	<path fill="#027226" d="M287.109,185.94c-0.76-4.81-2.026-9.526-3.779-14.07L248,80l-24,8l34.27,89.1
		c3.791,9.851,5.732,20.315,5.73,30.87v28.39L287.109,185.94z"/>
	<path fill="#027E2A" d="M322.311,325.75c8.109,10.814,8.109,25.686,0,36.5l-0.109,0.15c-6.421,8.561-16.498,13.6-27.2,13.6h-14
		c-10.701,0-20.778-5.039-27.2-13.6l-0.11-0.15c-8.11-10.814-8.11-25.686,0-36.5L264,312v-75.64l23.109-50.42L288,184l40-104l24,8
		l-34.27,89.1c-3.79,9.851-5.732,20.315-5.73,30.87V312L322.311,325.75z"/>
	<path fill="#027E2A" d="M322.311,362.25l-0.109,0.15c-3.363,4.488-7.789,8.072-12.88,10.43l-47.83-2.99
		c-2.943-2.055-5.54-4.566-7.69-7.439l-0.11-0.149c-8.11-10.815-8.11-25.685,0-36.5l0.71-0.95l9.6-4.8l48-112.03V312l10.312,13.75
		C330.42,336.564,330.42,351.436,322.311,362.25z"/>
	<g>
		<path fill="#E78244" d="M80.55,298.645c-4.418,0.006-8.004-3.571-8.01-7.989c-0.004-3.304,2.022-6.271,5.101-7.468l14.905-5.814
			c4.116-1.605,8.755,0.429,10.361,4.544c1.606,4.117-0.428,8.756-4.544,10.362l-14.9,5.815
			C82.534,298.458,81.546,298.645,80.55,298.645z"/>
		<path fill="#E78244" d="M125.266,281.193c-4.418,0.004-8.004-3.573-8.009-7.992c-0.003-3.301,2.021-6.266,5.098-7.463
			l14.906-5.816c4.116-1.605,8.755,0.43,10.361,4.545c1.606,4.116-0.429,8.755-4.545,10.361l-14.9,5.816
			C127.249,281.008,126.262,281.193,125.266,281.193z"/>
		<path fill="#E78244" d="M93.411,327.729c-4.418,0.006-8.005-3.571-8.01-7.989c-0.004-3.304,2.021-6.271,5.1-7.468l21.13-8
			c4.117-1.604,8.756,0.431,10.362,4.545c1.606,4.117-0.429,8.757-4.545,10.362l-21.131,8
			C95.391,327.541,94.405,327.727,93.411,327.729z"/>
		<path fill="#E78244" d="M144.352,308.1c-4.418,0.006-8.003-3.574-8.008-7.992c-0.003-3.301,2.021-6.265,5.098-7.463l7.453-2.907
			c4.117-1.606,8.755,0.429,10.361,4.545s-0.429,8.756-4.545,10.36l-7.453,2.908C146.332,307.913,145.346,308.1,144.352,308.1
			L144.352,308.1z"/>
	</g>
	<path fill="#02A437" d="M189,200h18.987c12.88,0,24.655,7.278,30.413,18.8L245,232h-18.987c-12.878,0-24.651-7.276-30.41-18.795
		L189,200z"/>
	<path fill="#8F6934" d="M227.633,278c-4.418,0-8-3.582-8-8c0.06-27.05,19.141-50.326,45.654-55.689l0.777-0.156
		c4.332-0.866,8.547,1.944,9.414,6.277c0.864,4.333-1.945,8.547-6.277,9.413L268.424,230c-19.043,3.852-32.749,20.57-32.791,40
		C235.633,274.418,232.051,278,227.633,278z"/>
	<path fill="#CBCBCB" d="M322.311,362.25l-0.109,0.15c-3.363,4.488-7.789,8.072-12.88,10.43l-47.83-2.99
		c-2.943-2.055-5.54-4.566-7.69-7.439l-0.11-0.149c-8.11-10.815-8.11-25.685,0-36.5l0.71-0.95l9.6-4.8l48-112.03V312l10.312,13.75
		C330.42,336.564,330.42,351.436,322.311,362.25z"/>
	<path fill="#E82F3E" d="M198.988,254c7.899,0,15.277,3.948,19.659,10.521c3.309,4.963,10.014,6.303,14.977,2.994
		c1.186-0.791,2.204-1.81,2.995-2.994c4.382-6.573,11.758-10.521,19.658-10.521c7.177,0,13.965,3.263,18.45,8.867l1.879,2.348
		c13.795,17.243,15.193,41.318,3.49,60.044l-15.609,24.976c-3.02,4.832-8.313,7.767-14.009,7.767c-4.382,0-8.584-1.74-11.682-4.839
		c-6.164-6.164-16.158-6.164-22.322,0l0,0c-3.099,3.098-7.301,4.839-11.682,4.839c-5.696,0-10.991-2.935-14.01-7.767l-15.61-24.976
		c-11.703-18.726-10.304-42.801,3.491-60.044l1.878-2.348C185.023,257.263,191.811,254,198.988,254z"/>
	<path fill="#FF6268" d="M204.6,320c-2.123,0.002-4.158-0.841-5.657-2.343c-7.224-7.208-9.015-18.233-4.443-27.357l2.941-5.881
		c2.007-3.937,6.825-5.5,10.761-3.493c3.893,1.984,5.473,6.727,3.549,10.649l-2.94,5.881c-1.485,2.962-0.904,6.543,1.442,8.884
		c3.126,3.123,3.129,8.188,0.006,11.314C208.759,319.156,206.723,320,204.6,320z"/>
	<path fill="#027E2A" d="M352,296l7.029,7.029C369.896,313.895,376,328.633,376,344h24v-8c0-15.367-6.104-30.105-16.971-40.971
		L376,288L352,296z"/>
	<path fill="#027E2A" d="M448,296l-7.029,7.029C430.104,313.895,424,328.633,424,344h-24v-8c0-15.367,6.104-30.105,16.971-40.971
		L424,288L448,296z"/>
	<path fill="#02A437" d="M488,234c0.008-8.914-3.957-17.368-10.814-23.062c3.834-16.111-6.116-32.281-22.229-36.116
		c-1.629-0.388-3.287-0.638-4.957-0.749c-16.52-28.716-53.189-38.604-81.907-22.083c-9.182,5.282-16.801,12.901-22.083,22.083
		c-16.524,1.094-29.034,15.378-27.938,31.903c0.11,1.672,0.36,3.332,0.75,4.961c-12.671,10.533-14.47,29.316-4.027,42.062
		c-10.486,19.444-3.224,43.707,16.221,54.192c13.948,7.522,31.023,6.101,43.535-3.627c8.513-1.11,16.591-4.406,23.451-9.565
		c6.86,5.16,14.938,8.457,23.451,9.569c17.439,13.559,42.571,10.412,56.13-7.028c9.729-12.515,11.15-29.591,3.626-43.541
		C485.607,247.646,488.009,240.93,488,234z"/>
	<path fill="#027E2A" d="M420.634,200c-3.391,0-6.413-2.139-7.543-5.336c-2.951-8.334-12.1-12.699-20.435-9.748
		c-4.553,1.612-8.135,5.194-9.747,9.748c-1.474,4.166-6.043,6.35-10.209,4.877s-6.351-6.043-4.877-10.209l0,0
		c5.896-16.666,24.187-25.397,40.854-19.5c9.11,3.223,16.277,10.39,19.5,19.5c1.475,4.165-0.708,8.736-4.874,10.21
		C422.445,199.845,421.543,200,420.634,200z"/>
	<path fill="#027E2A" d="M358,256c-13.255,0-24-10.745-24-24s10.745-24,24-24c4.418,0,8,3.582,8,8s-3.582,8-8,8s-8,3.582-8,8
		s3.582,8,8,8s8,3.582,8,8S362.418,256,358,256z"/>
	<path fill="#FBB540" d="M24,344h464v48H24V344z"/>
	<path fill="#C38325" d="M72,376H56c-4.418,0-8-3.582-8-8s3.582-8,8-8h16c4.418,0,8,3.582,8,8S76.418,376,72,376z"/>
	<path fill="#C38325" d="M456,376h-16c-4.418,0-8-3.582-8-8s3.582-8,8-8h16c4.418,0,8,3.582,8,8S460.418,376,456,376z"/>
	<path fill="#C38325" d="M264,376h-16c-4.418,0-8-3.582-8-8s3.582-8,8-8h16c4.418,0,8,3.582,8,8S268.418,376,264,376z"/>
</g>
</svg>
