<svg id="Capa_1" enable-background="new 0 0 512 512" height="512" viewBox="0 0 512 512" width="512" xmlns="http://www.w3.org/2000/svg"><path d="m405.482 57.221h-298.964c-9.885 0-17.898-8.013-17.898-17.898v-21.425c-.001-9.885 8.013-17.898 17.898-17.898h298.964c9.885 0 17.898 8.013 17.898 17.898v21.424c0 9.885-8.013 17.899-17.898 17.899z" fill="#ff4755"/><path d="m405.482 0h-18.581c9.885 0 17.898 8.013 17.898 17.898v21.424c0 9.885-8.013 17.898-17.898 17.898h18.581c9.885 0 17.898-8.013 17.898-17.898v-21.424c0-9.885-8.013-17.898-17.898-17.898z" fill="#fc2b3a"/><path d="m109.074 57.221h293.851v28.539h-293.851z" fill="#ffe55a"/><path d="m408.414 157.642c-13.694 0-25.998-5.366-34.5-13.896-1.98-1.986-5.228-1.986-7.208 0-8.502 8.53-20.806 13.896-34.5 13.896s-25.998-5.366-34.5-13.896c-1.98-1.986-5.228-1.986-7.208 0-8.502 8.53-20.806 13.896-34.499 13.896-13.694 0-25.998-5.366-34.5-13.896-1.98-1.986-5.228-1.986-7.208 0-8.502 8.53-20.805 13.896-34.5 13.896s-25.997-5.366-34.5-13.896c-1.98-1.986-5.228-1.986-7.208 0-8.502 8.53-20.806 13.896-34.5 13.896-5.241 0-10.267-.808-14.966-2.256v330.243c0 14.565 11.807 26.371 26.371 26.371h282.018c14.565 0 26.371-11.807 26.371-26.371v-330.243c-4.696 1.448-9.722 2.256-14.963 2.256z" fill="#ffe55a"/><path d="m408.414 157.642c-1.218 0-2.421-.057-3.615-.14v328.127c0 14.564-11.807 26.371-26.371 26.371h18.581c14.564 0 26.371-11.807 26.371-26.371v-330.243c-4.699 1.448-9.725 2.256-14.966 2.256z" fill="#ffd91d"/><path d="m402.909 85.76h-146.895-146.896l-44.287 45.73c-1.717 1.773-1.949 4.521-.535 6.544 8.232 11.781 22.747 19.608 39.289 19.608 13.694 0 25.998-5.366 34.5-13.896 1.98-1.986 5.228-1.986 7.207 0 8.502 8.53 20.805 13.896 34.5 13.896 13.694 0 25.998-5.366 34.5-13.896 1.98-1.986 5.228-1.986 7.207 0 8.502 8.53 20.806 13.896 34.5 13.896s25.998-5.366 34.5-13.896c1.979-1.986 5.228-1.986 7.207 0 8.502 8.53 20.806 13.896 34.5 13.896s25.998-5.366 34.5-13.896c1.98-1.986 5.228-1.986 7.207 0 8.502 8.53 20.806 13.896 34.5 13.896 16.543 0 31.058-7.827 39.29-19.609 1.413-2.023 1.182-4.77-.534-6.543z" fill="#ff4755"/><path d="m384.344 57.221h18.581v28.539h-18.581z" fill="#ffd91d"/><path d="m441.329 145.233c2.398-2.182 4.548-4.587 6.375-7.2 1.413-2.023 1.182-4.77-.534-6.543l-44.26-45.73h-18.581l56.996 59.475c.001-.001.003-.001.004-.002z" fill="#fc2b3a"/><path d="m88.619 223.914h334.761v207.295h-334.761z" fill="#ff4755"/><path d="m404.799 223.914h18.581v207.295h-18.581z" fill="#fc2b3a"/><path d="m246.817 263.943h-36.73l-18.365 31.809 18.365 31.809h36.73l18.365-31.809z" fill="#ffe55a"/><path d="m246.817 263.943h-18.581l16.875 29.229c.922 1.597.922 3.564 0 5.161l-16.875 29.229h18.581l18.365-31.809z" fill="#ffd91d"/><path d="m246.817 327.561h-36.73l-18.365 31.809 18.365 31.809h36.73l18.365-31.809z" fill="#ffaa5c"/><path d="m246.817 327.561h-18.581l16.875 29.229c.922 1.597.922 3.564 0 5.161l-16.875 29.229h18.581l18.365-31.809z" fill="#ff9838"/><path d="m301.913 295.752h-36.731l-18.364 31.809 18.364 31.809h36.731l18.365-31.809z" fill="#f28b36"/><path d="m301.913 295.752h-18.581l16.875 29.228c.922 1.597.922 3.564 0 5.161l-16.875 29.229h18.581l18.365-31.809z" fill="#db7b33"/></svg>