<?xml version="1.0" encoding="utf-8"?>
<!-- Generator: Adobe Illustrator 16.0.0, SVG Export Plug-In . SVG Version: 6.00 Build 0)  -->
<!DOCTYPE svg PUBLIC "-//W3C//DTD SVG 1.1//EN" "http://www.w3.org/Graphics/SVG/1.1/DTD/svg11.dtd">
<svg version="1.1" id="Layer_1" xmlns="http://www.w3.org/2000/svg" xmlns:xlink="http://www.w3.org/1999/xlink" x="0px" y="0px"
	 width="512px" height="512px" viewBox="0 0 512 512" enable-background="new 0 0 512 512" xml:space="preserve">
<g>
	<path fill="#14BB87" d="M386.45,332.16v40.99c0,13.22-10.761,23.979-23.99,23.979H23.99C10.76,397.13,0,386.37,0,373.15V200.84
		c0-13.23,10.76-23.98,23.99-23.98h103.64L386.45,332.16z"/>
	<path fill="#0EA88A" d="M386.45,332.16v24.25H149.53c-24.25,0-43.98-19.73-43.98-43.98V176.86h22.08L386.45,332.16z"/>
	<path fill="#14BB87" d="M512,140.12v172.31c0,13.221-10.76,23.98-23.98,23.98H149.53c-13.22,0-23.98-10.76-23.98-23.98V140.12
		c0-13.22,10.76-23.98,23.98-23.98H488.02C501.24,116.14,512,126.9,512,140.12z"/>
	<path fill="#0EA88A" d="M512,140.12v172.31c0,13.221-10.76,23.98-23.98,23.98h-20c13.24,0,23.98-10.74,23.98-23.98V140.12
		c0-13.24-10.74-23.98-23.98-23.98h20C501.24,116.14,512,126.9,512,140.12z"/>
	<path fill="#09EAA3" d="M475.352,182.932c-16.361,0-29.675-13.304-29.675-29.656c0-4.143-3.356-7.5-7.5-7.5H200.374
		c-4.143,0-7.5,3.357-7.5,7.5c0,16.353-13.312,29.656-29.674,29.656c-4.143,0-7.5,3.357-7.5,7.5v71.688c0,4.143,3.357,7.5,7.5,7.5
		c16.362,0,29.674,13.304,29.674,29.655c0,4.144,3.357,7.5,7.5,7.5h237.803c4.144,0,7.5-3.356,7.5-7.5
		c0-16.353,13.313-29.655,29.675-29.655c4.144,0,7.5-3.357,7.5-7.5v-71.688C482.852,186.289,479.494,182.932,475.352,182.932z"/>
	<path fill="#14BB87" d="M318.775,185.444c-22.523,0-40.849,18.316-40.849,40.831s18.324,40.833,40.849,40.833
		c22.523,0,40.848-18.317,40.848-40.833S341.299,185.444,318.775,185.444z"/>
</g>
</svg>
