<?xml version="1.0" encoding="utf-8"?>
<!-- Generator: Adobe Illustrator 16.0.0, SVG Export Plug-In . SVG Version: 6.00 Build 0)  -->
<!DOCTYPE svg PUBLIC "-//W3C//DTD SVG 1.1//EN" "http://www.w3.org/Graphics/SVG/1.1/DTD/svg11.dtd">
<svg version="1.1" id="Layer_1" xmlns="http://www.w3.org/2000/svg" xmlns:xlink="http://www.w3.org/1999/xlink" x="0px" y="0px"
	 width="512px" height="512px" viewBox="0 0 512 512" enable-background="new 0 0 512 512" xml:space="preserve">
<path fill="#CA301E" d="M441.29,250.11c0.024,17.041-2.749,33.968-8.21,50.11c-16.391,48.21-75.09,141.37-106.13,173.87
	c-23.78,24.91-52.521,40.58-83.48,10.16c-32.7-32.12-79.49-88.05-113.229-144.2c-56.62-94.21-24.99-162.22,16.52-190.17
	c12.26,5.27,30.26,11.2,47.271,10.04c25.689-1.75,36.39-32.51,36.39-32.51c1.35,41.27,37.73,68.14,37.73,68.14
	c-0.67-22.93,23.59-43.37,24.939-86.84c0.12-3.99,7.53,28.19,11.45,37.06c6.42,14.52,24.26,38.41,50.54,38.41
	c6.07,0,24.26-1.34,24.26-1.34s0.58-14.69,0-19.55c-3.37-28.3-31.1-26.25-43.13-39.08c-6.67-7.11-7.47-17.15-7.25-23.16h0.01
	c10.931,0.77,29.46,9.9,29.46,9.9C412.85,139.97,441.29,195.13,441.29,250.11z"/>
<g opacity="0.5">
	<path fill="#823B33" d="M282.146,448.288c-32.699-32.12-79.489-88.05-113.229-144.2c-14.2-23.632-22.85-45.615-27.184-65.732
		c-10.374-34.081-5.417-64.529,6.765-87.746c-0.587-0.244-1.175-0.488-1.738-0.73c-41.51,27.95-73.14,95.96-16.52,190.17
		c33.74,56.15,80.53,112.08,113.229,144.2c30.96,30.42,59.7,14.75,83.48-10.16c4.028-4.218,8.523-9.461,13.332-15.493
		C322.431,468.36,302.782,468.563,282.146,448.288z"/>
</g>
<path fill="#76B035" d="M235.08,52.03c0.81-11.15,0.01-22.5-4.64-31.08c0.91,1.02,59.31,66.21,59.28,66.21
	c0,0,34.36-76.75,97.03-76.16c0,0-31.67,24.94-64.49,63.95c-0.99,1.18,5.87-1.95,5.87-1.95l97.7-28.3
	c-28.3,42.46-96.36,51.21-96.36,51.21c-0.286,1.7-0.457,3.417-0.51,5.14c-0.22,6.01,0.58,16.05,7.25,23.16
	c12.03,12.83,39.76,10.78,43.13,39.08c0.58,4.86,0,19.55,0,19.55s-18.189,1.34-24.26,1.34c-26.28,0-44.12-23.89-50.54-38.41
	c-3.92-8.87-11.33-41.05-11.45-37.06c-1.35,43.47-25.609,63.91-24.939,86.84c0,0-36.38-26.87-37.73-68.14
	c0,0-10.7,30.76-36.39,32.51c-17.01,1.16-35.01-4.77-47.271-10.04c-5.166-2.187-10.195-4.685-15.06-7.48c0,0,73.36-6.92,80.52-24.93
	c3.66-9.18-141.51,4.72-141.51,4.72C159.63,71.64,224,91.94,228.09,93.31c0.053,0.059,0.133,0.086,0.21,0.07
	c0,0-0.07-0.02-0.21-0.07C226.76,92,233.59,72.32,235.08,52.03z"/>
<g opacity="0.8">
	<path fill="#E9E9E9" d="M277.85,467.229c-2.776-1.8-3.568-5.51-1.77-8.286c0.004-0.005,0.007-0.01,0.01-0.015
		c1.8-2.776,5.51-3.568,8.286-1.769c0.005,0.003,0.009,0.006,0.015,0.009c2.776,1.801,3.568,5.511,1.768,8.287
		c-0.003,0.005-0.006,0.009-0.008,0.013c-1.107,1.707-3.006,2.735-5.041,2.73C279.951,468.201,278.818,467.864,277.85,467.229z
		 M299.64,433.688c-2.772-1.81-3.559-5.521-1.76-8.3c1.807-2.777,5.522-3.565,8.3-1.76c2.777,1.801,3.568,5.511,1.769,8.287
		c-0.003,0.005-0.006,0.009-0.008,0.013c-1.107,1.703-3,2.73-5.03,2.73C301.749,434.656,300.614,434.319,299.64,433.688z
		 M321.44,400.148c-2.777-1.801-3.568-5.512-1.768-8.289c0.003-0.003,0.005-0.007,0.007-0.01c1.801-2.777,5.511-3.569,8.288-1.769
		c0.004,0.003,0.008,0.005,0.013,0.008c2.776,1.8,3.568,5.511,1.768,8.288c-0.003,0.004-0.006,0.008-0.008,0.012
		c-1.111,1.703-3.007,2.73-5.04,2.73C323.543,401.116,322.41,400.779,321.44,400.148L321.44,400.148z M343.23,366.609
		c-2.778-1.807-3.566-5.522-1.761-8.301c1.807-2.777,5.522-3.565,8.3-1.76c2.777,1.801,3.568,5.511,1.769,8.287
		c-0.003,0.005-0.005,0.009-0.008,0.014c-1.108,1.7-3,2.727-5.03,2.729C345.34,367.576,344.204,367.24,343.23,366.609z
		 M365.03,333.061c-2.778-1.801-3.571-5.513-1.771-8.291l0,0c1.81-2.778,5.525-3.569,8.311-1.77c2.771,1.811,3.557,5.521,1.76,8.3
		c-1.108,1.706-3.006,2.733-5.04,2.73C367.132,334.031,365.999,333.695,365.03,333.061z M386.82,299.52
		c-2.777-1.801-3.568-5.512-1.768-8.289c0.003-0.004,0.005-0.007,0.008-0.011c1.806-2.777,5.521-3.565,8.3-1.76
		c2.776,1.802,3.567,5.514,1.766,8.291c-0.002,0.003-0.004,0.006-0.006,0.009c-1.107,1.707-3.006,2.735-5.04,2.73
		C388.922,300.492,387.789,300.154,386.82,299.52L386.82,299.52z"/>
</g>
<g opacity="0.8">
	<path fill="#E9E9E9" d="M243.6,426.109c-2.777-1.8-3.569-5.51-1.77-8.286c0.003-0.005,0.006-0.01,0.009-0.015
		c1.801-2.776,5.512-3.567,8.289-1.767c0.004,0.003,0.007,0.005,0.011,0.007c2.777,1.801,3.568,5.511,1.768,8.288
		c-0.003,0.004-0.005,0.008-0.008,0.012c-1.104,1.705-2.999,2.732-5.03,2.73C245.709,427.081,244.572,426.744,243.6,426.109z
		 M265.4,392.568c-2.781-1.802-3.574-5.518-1.771-8.298c0-0.001,0.001-0.001,0.001-0.001c1.806-2.778,5.522-3.566,8.3-1.761
		c2.777,1.802,3.568,5.513,1.768,8.289c-0.002,0.004-0.005,0.008-0.008,0.011c-1.104,1.705-2.998,2.732-5.029,2.73
		C267.502,393.538,266.37,393.201,265.4,392.568z M287.189,359.03c-2.777-1.807-3.564-5.522-1.76-8.3
		c1.802-2.777,5.514-3.568,8.289-1.767c0.004,0.003,0.008,0.005,0.012,0.007c2.773,1.796,3.566,5.5,1.77,8.274
		c-0.003,0.005-0.006,0.011-0.01,0.016c-1.107,1.708-3.005,2.739-5.04,2.74C289.293,359.998,288.16,359.66,287.189,359.03
		L287.189,359.03z M308.98,325.49c-2.771-1.812-3.558-5.521-1.761-8.301c1.806-2.777,5.52-3.568,8.3-1.769
		c2.781,1.808,3.569,5.527,1.762,8.308c-0.001,0.001-0.001,0.001-0.001,0.002c-1.107,1.701-3,2.729-5.03,2.73
		C311.09,326.458,309.954,326.121,308.98,325.49z M330.78,291.939c-2.776-1.8-3.569-5.51-1.77-8.286
		c0.003-0.005,0.006-0.01,0.009-0.015c1.81-2.772,5.521-3.56,8.301-1.76c2.771,1.811,3.557,5.521,1.76,8.3
		c-1.108,1.706-3.006,2.733-5.04,2.73C332.882,292.911,331.748,292.574,330.78,291.939z"/>
</g>
<g opacity="0.8">
	<path fill="#E9E9E9" d="M173.12,347.29c-2.778-1.806-3.566-5.522-1.76-8.3c1.801-2.777,5.513-3.568,8.291-1.768
		c0.003,0.002,0.006,0.004,0.01,0.006c2.777,1.803,3.567,5.514,1.766,8.291c-0.002,0.004-0.004,0.006-0.006,0.01
		c-1.107,1.707-3.005,2.734-5.04,2.729C175.222,348.262,174.089,347.924,173.12,347.29z M194.91,313.75
		c-2.771-1.811-3.558-5.521-1.76-8.3c1.806-2.778,5.522-3.566,8.3-1.761c2.778,1.805,3.571,5.519,1.77,8.3
		c-1.111,1.703-3.007,2.73-5.04,2.729C197.02,314.716,195.885,314.38,194.91,313.75z M216.71,280.21
		c-2.778-1.806-3.565-5.522-1.76-8.3c1.8-2.778,5.512-3.57,8.29-1.77c0,0,0,0,0,0c2.777,1.805,3.569,5.518,1.77,8.299
		c-1.107,1.709-3.004,2.74-5.04,2.742C218.813,281.178,217.681,280.84,216.71,280.21z"/>
</g>
<g opacity="0.8">
	<path fill="#E9E9E9" d="M148.62,304.59c-2.778-1.807-3.566-5.521-1.76-8.3c1.801-2.776,5.512-3.568,8.289-1.767
		c0.004,0.002,0.007,0.004,0.011,0.007c2.777,1.801,3.568,5.512,1.767,8.289c-0.002,0.003-0.005,0.007-0.007,0.011
		c-1.107,1.707-3.005,2.735-5.04,2.73C150.722,305.563,149.589,305.225,148.62,304.59z M170.42,271.05
		c-2.778-1.806-3.565-5.521-1.76-8.3c1.801-2.777,5.512-3.568,8.289-1.768c0.003,0.003,0.007,0.006,0.011,0.008
		c2.778,1.806,3.565,5.521,1.76,8.3c-1.107,1.707-3.005,2.735-5.04,2.729C172.522,272.021,171.389,271.685,170.42,271.05
		L170.42,271.05z"/>
</g>
<g opacity="0.8">
	<path fill="#E9E9E9" d="M129.45,259.85c-2.777-1.801-3.568-5.512-1.767-8.289c0.002-0.004,0.004-0.007,0.007-0.011
		c1.801-2.777,5.512-3.568,8.289-1.767c0.004,0.002,0.007,0.004,0.011,0.007c2.777,1.801,3.568,5.512,1.767,8.289
		c-0.002,0.004-0.004,0.007-0.007,0.011c-1.107,1.707-3.006,2.734-5.04,2.729C131.552,260.821,130.419,260.484,129.45,259.85z
		 M151.24,226.31c-2.778-1.806-3.566-5.522-1.76-8.3c1.806-2.777,5.522-3.565,8.3-1.76c2.777,1.801,3.568,5.512,1.767,8.289
		c-0.002,0.004-0.004,0.007-0.007,0.011c-1.108,1.701-3,2.729-5.03,2.73C153.35,227.277,152.214,226.94,151.24,226.31z"/>
</g>
<g opacity="0.8">
	<path fill="#E9E9E9" d="M206.32,386.76c-2.777-1.801-3.568-5.512-1.767-8.289c0.002-0.004,0.005-0.007,0.007-0.011
		c1.801-2.776,5.512-3.567,8.289-1.767c0.003,0.002,0.007,0.004,0.011,0.007c2.777,1.801,3.568,5.512,1.767,8.289
		c-0.002,0.003-0.004,0.007-0.007,0.011c-1.107,1.707-3.006,2.734-5.04,2.729C208.422,387.731,207.289,387.395,206.32,386.76z
		 M228.11,353.22c-2.778-1.806-3.565-5.521-1.76-8.3c1.806-2.777,5.522-3.565,8.3-1.76c2.777,1.801,3.568,5.512,1.767,8.289
		c-0.002,0.004-0.005,0.007-0.007,0.011c-1.104,1.706-2.999,2.733-5.03,2.729C230.219,354.191,229.083,353.854,228.11,353.22z
		 M249.91,319.68c-2.777-1.805-3.569-5.518-1.77-8.3c1.809-2.778,5.525-3.57,8.31-1.771c2.771,1.814,3.558,5.527,1.76,8.311
		c-1.112,1.701-3.007,2.729-5.04,2.729C252.013,320.646,250.881,320.311,249.91,319.68L249.91,319.68z M271.7,286.141
		c-2.78-1.81-3.568-5.529-1.761-8.311c1.811-2.772,5.521-3.56,8.301-1.762c2.777,1.807,3.565,5.522,1.76,8.301
		c-1.107,1.707-3.006,2.735-5.04,2.73C273.804,287.1,272.672,286.768,271.7,286.141L271.7,286.141z M293.49,252.59
		c-2.777-1.801-3.568-5.512-1.768-8.289c0.002-0.003,0.005-0.007,0.008-0.011c1.806-2.778,5.521-3.565,8.3-1.76
		c2.777,1.806,3.565,5.521,1.76,8.3c-1.107,1.707-3.005,2.735-5.04,2.73C295.592,253.562,294.459,253.225,293.49,252.59z"/>
</g>
</svg>
